<?xml version="1.0" encoding="utf-8"?><!-- Uploaded to: SVG Repo, www.svgrepo.com, Generator: SVG Repo Mixer Tools -->
<svg width="800px" height="800px" viewBox="-2.97 0 98.026 98.026" xmlns="http://www.w3.org/2000/svg">
  <path id="Path_29" data-name="Path 29" d="M264.926,780.558a2.011,2.011,0,0,0-1.414-.586H232.668a2,2,0,0,0-2,2v12.513a2,2,0,0,0,2,2h3.817v22.235h-34.32V798.049a26.546,26.546,0,0,0,12.313-4.116,2,2,0,1,0-2.155-3.368,22.526,22.526,0,0,1-10.158,3.462V771.461l0,0,5.58-5.581a2,2,0,0,0-2.828-2.828l-2.755,2.755V755.454a2,2,0,0,0-4,0v22.451l-2.987-2.988a2,2,0,1,0-2.829,2.828l5.816,5.819v10.474A22.66,22.66,0,0,1,187.691,752.5a2,2,0,0,0,.607-2.718,13.862,13.862,0,1,1,23.62,0,2,2,0,0,0,.608,2.718,22.807,22.807,0,0,1,8.15,9.412,2,2,0,1,0,3.627-1.69,26.8,26.8,0,0,0-8.075-10,17.864,17.864,0,1,0-32.239,0,26.658,26.658,0,0,0,14.176,47.834v20.666H187.9a2,2,0,1,0,0,4h75.018a2,2,0,1,0,0-4H259.7V796.483h3.817a2,2,0,0,0,2-2V781.972A2.007,2.007,0,0,0,264.926,780.558Zm-9.23,37.953H240.484V796.6H255.7Zm5.815-26.026H234.667v-8.514h26.844Zm-42.848-7.935-.866,1.091a2,2,0,1,0,3.135,2.484l.865-1.091a2,2,0,1,0-3.134-2.484Z" transform="translate(-173.433 -724.69)" fill="#3b3859"/>
</svg>